<svg xmlns="http://www.w3.org/2000/svg" version="1.1" xmlns:xlink="http://www.w3.org/1999/xlink" xmlns:svgjs="http://svgjs.dev/svgjs" width="1500" height="1500" viewBox="0 0 1500 1500"><rect width="1500" height="1500" fill="#ffffff"></rect><g transform="matrix(0.6666666666666666,0,0,0.6666666666666666,249.39393939393938,438.5856950067477)"><svg viewBox="0 0 396 247" data-background-color="#ffffff" preserveAspectRatio="xMidYMid meet" height="935" width="1500" xmlns="http://www.w3.org/2000/svg" xmlns:xlink="http://www.w3.org/1999/xlink"><g id="tight-bounds" transform="matrix(1,0,0,1,0.2400000000000091,-0.09999999999999432)"><svg viewBox="0 0 395.52 247.2" height="247.2" width="395.52"><g><svg></svg></g><g><svg viewBox="0 0 395.52 247.2" height="247.2" width="395.52"><g transform="matrix(1,0,0,1,75.54432,62.34631789976134)"><svg viewBox="0 0 244.43135999999998 122.50736420047731" height="122.50736420047731" width="244.43135999999998"><g><svg viewBox="0 0 244.43135999999998 122.50736420047731" height="122.50736420047731" width="244.43135999999998"><g><svg viewBox="0 0 244.43136 122.50736420047733" height="122.50736420047731" width="244.43135999999998"><g><svg viewBox="0 0 244.43136 122.50736420047733" height="122.50736420047733" width="244.43136"><g id="textblocktransform"><svg viewBox="0 0 244.43136 122.50736420047733" height="122.50736420047733" width="244.43136" id="textblock"><g><svg viewBox="0 0 244.43136 122.50736420047733" height="122.50736420047733" width="244.43136"><g transform="matrix(1,0,0,1,0,0)"><svg width="244.43136" viewBox="1.51 -31.74 81.83 41.019999999999996" height="122.50736420047733" data-palette-color="#001f3f"><path d="M11.04-1.22L11.04-1.22 8.84-1.22 8.84-8.45 11.52-10.94 18.41 0 24.9 0Q24.9-1.07 24.17-1.17L24.17-1.17Q23.97-1.22 23.68-1.22L23.68-1.22 21.92-1.22 14.06-13.33 18.65-17.63Q20.36-19.24 21.24-19.43L21.24-19.43Q21.63-19.53 22.12-19.53L22.12-19.53Q23.19-19.53 23.29-20.26L23.29-20.26Q23.34-20.51 23.34-20.75L23.34-20.75 15.04-20.75 15.04-19.53 18.7-19.53 8.84-10.4 8.84-31.74 1.51-31.74 1.51-30.52 5.18-30.52 5.18-4.15Q5.18-1.9 3.91-1.46L3.91-1.46Q3.17-1.22 1.51-1.22L1.51-1.22 1.51 0 12.26 0Q12.26-1.07 11.52-1.17L11.52-1.17Q11.33-1.22 11.04-1.22ZM36.57-20.02L36.57-20.02Q39.99-20.02 41.11-17.14L41.11-17.14Q41.5-16.21 41.5-15.14L41.5-15.14Q41.5-12.7 39.16-12.16L39.16-12.16Q37.94-11.91 35.69-11.96L35.69-11.96 30.52-12.11Q30.76-17.72 34.18-19.43L34.18-19.43Q35.3-20.02 36.57-20.02ZM45.07-4.69L45.07-4.69 43.85-5.13Q42.14-1.42 38.33-0.93L38.33-0.93Q37.84-0.88 37.4-0.88L37.4-0.88Q32.27-0.88 30.95-6.98L30.95-6.98Q30.56-8.69 30.52-10.74L30.52-10.74 36.37-10.64Q42.33-10.55 44.04-11.77L44.04-11.77Q45.36-12.74 45.36-14.55L45.36-14.55Q45.36-17.87 41.99-19.82L41.99-19.82Q39.6-21.24 36.47-21.24L36.47-21.24Q30.37-21.24 27.73-16.16L27.73-16.16Q26.36-13.53 26.36-10.21L26.36-10.21Q26.36-4.15 30.71-1.22L30.71-1.22Q33.3 0.49 36.62 0.49L36.62 0.49Q41.89 0.49 44.38-3.32L44.38-3.32Q44.77-4 45.07-4.69ZM56.73-27.88L56.73-27.88Q56.73-29.59 55.22-30.32L55.22-30.32Q54.63-30.57 54.1-30.57L54.1-30.57Q52.39-30.57 51.66-29L51.66-29Q51.41-28.47 51.41-27.88L51.41-27.88Q51.41-26.07 53.02-25.39L53.02-25.39Q53.56-25.2 54.1-25.2L54.1-25.2Q55.81-25.2 56.49-26.76L56.49-26.76Q56.73-27.29 56.73-27.88ZM56.25-20.75L48.68-20.75 48.68-19.53 52.58-19.53 52.58 3.32Q52.44 8.01 50.58 8.06L50.58 8.06Q49.6 8.06 49.26 6.74L49.26 6.74Q48.82 5.18 48.43 4.83L48.43 4.83Q47.99 4.54 47.46 4.54L47.46 4.54Q45.99 4.54 45.65 5.86L45.65 5.86Q45.6 6.1 45.6 6.3L45.6 6.3Q45.6 8.01 47.7 8.89L47.7 8.89Q48.68 9.28 49.7 9.28L49.7 9.28Q53.07 9.28 54.93 6.25L54.93 6.25Q56.25 4 56.25 0.63L56.25 0.63 56.25-20.75ZM79.14 0.49L79.14 0.49Q82.9 0.49 83.29-4.05L83.29-4.05Q83.34-4.35 83.34-4.59L83.34-4.59 82.07-4.64Q81.73-1.07 80.17-1.03L80.17-1.03Q78.9-1.12 78.85-3.56L78.85-3.56 78.85-13.87Q78.85-20.85 71.87-21.24L71.87-21.24Q71.43-21.24 70.99-21.24L70.99-21.24Q65.52-21.24 63.66-18.7L63.66-18.7Q63.08-17.87 63.08-17.04L63.08-17.04Q63.08-15.53 64.49-15.28L64.49-15.28Q64.74-15.23 64.98-15.23L64.98-15.23Q66.11-15.23 66.64-16.65L66.64-16.65Q67.33-18.46 67.57-18.8L67.57-18.8Q68.5-20.02 70.45-20.02L70.45-20.02Q75.04-19.73 75.19-14.99L75.19-14.99 75.19-11.91Q63.71-11.91 62.05-7.13L62.05-7.13Q61.76-6.2 61.76-5.13L61.76-5.13Q61.76-1.42 65.03-0.05L65.03-0.05Q66.35 0.49 67.81 0.49L67.81 0.49Q71.38 0.49 73.82-1.95L73.82-1.95Q74.7-2.88 75.14-3.91L75.14-3.91Q75.72 0.44 79.14 0.49ZM69.43-1.46L69.43-1.46Q66.45-1.46 65.76-4.44L65.76-4.44Q65.62-5.13 65.62-5.96L65.62-5.96Q65.62-9.23 69.38-10.11L69.38-10.11Q71.38-10.55 75.19-10.6L75.19-10.6 75.19-6.69Q74.46-3.32 71.62-1.95L71.62-1.95Q70.5-1.46 69.43-1.46Z" opacity="1" transform="matrix(1,0,0,1,0,0)" fill="#000000" class="wordmark-text-0" data-fill-palette-color="primary" id="text-0"></path></svg></g></svg></g></svg></g></svg></g></svg></g></svg></g></svg></g><g><path d="M0 123.6c0-68.262 55.338-123.6 123.6-123.6 39.735 0 75.091 18.75 97.702 47.886h-7.093c-21.66-25.893-54.211-42.362-90.609-42.362-65.212 0-118.076 52.864-118.076 118.076 0 65.212 52.864 118.076 118.076 118.076 36.398 0 68.949-16.469 90.609-42.362h7.093c-22.611 29.135-57.967 47.886-97.702 47.886-68.262 0-123.6-55.338-123.6-123.6z" fill="#000000" stroke="transparent" data-fill-palette-color="tertiary"></path></g></svg></g><defs></defs></svg><rect width="395.52" height="247.2" fill="none" stroke="none" visibility="hidden"></rect></g></svg></g></svg>